<svg width="503" height="503" viewBox="0 0 503 503" fill="none" xmlns="http://www.w3.org/2000/svg">
<path d="M247 125.039C179.22 127.409 125 183.101 125 251.459C125 321.323 181.636 377.959 251.5 377.959C298.631 377.959 339.741 352.183 361.505 313.959H248V187.959H503V237.959H502.642C502.878 242.429 503 246.93 503 251.459C503 390.359 390.4 502.959 251.5 502.959C112.6 502.959 0 390.359 0 251.459C0 114.062 110.177 2.40068 247 0V125.039Z" fill="black"/>
<path d="M242 0H310.5C345.018 0 373 27.9822 373 62.5V62.5C373 97.0178 345.018 125 310.5 125H242V0Z" fill="black"/>
</svg>
